<?xml version="1.0" encoding="utf-8"?>
<!-- Generator: Adobe Illustrator 21.0.0, SVG Export Plug-In . SVG Version: 6.00 Build 0)  -->
<svg version="1.1" id="Capa_1" xmlns="http://www.w3.org/2000/svg" xmlns:xlink="http://www.w3.org/1999/xlink" x="0px" y="0px"
	 width="99px" height="99px" viewBox="0 0 99 99" style="enable-background:new 0 0 99 99;" xml:space="preserve">
<path d="M83.8,16H15.2c-3.1,0-5.7,2.6-5.7,5.7v57.1c0,3.1,2.6,5.7,5.7,5.7h68.6c3.1,0,5.7-2.6,5.7-5.7V21.7
	C89.5,18.6,86.9,16,83.8,16z M27.6,69.7c0,2.7-2.1,4.9-4.8,4.9s-4.8-2.1-4.8-4.9V30.9c0-2.7,2.1-4.9,4.8-4.9s4.8,2.1,4.8,4.9V69.7z
	 M79.6,66.5c1.8,2,1.6,5.1-0.4,6.9c-0.9,0.8-2,1.2-3.1,1.2c-1.3,0-2.6-0.6-3.6-1.6L59.4,57.7L46.2,72.9c-0.9,1.1-2.2,1.6-3.6,1.6
	c-1.1,0-2.2-0.4-3.1-1.2c-2-1.8-2.1-4.9-0.4-6.9l14-16.2L39.2,34.1c-1.8-2-1.6-5.1,0.4-6.9c1.9-1.8,5-1.6,6.7,0.4l13.1,15.3
	l13.1-15.3c1.7-2,4.7-2.2,6.7-0.4c2,1.8,2.1,4.9,0.4,6.9l-14,16.2L79.6,66.5z"/>
</svg>
